<svg width="256" height="256" viewBox="0 0 256 256" fill="none" xmlns="http://www.w3.org/2000/svg">
<rect width="256" height="256" fill="#F5F5F5"/>
<rect width="256" height="256" fill="white"/>
<rect x="70" y="138.143" width="35.7143" height="112.857" rx="17.8571" transform="rotate(-90 70 138.143)" fill="black" stroke="#2286FF" stroke-width="10"/>
<mask id="path-2-outside-1_3_26" maskUnits="userSpaceOnUse" x="103.571" y="133.143" width="46" height="113" fill="black">
<rect fill="white" x="103.571" y="133.143" width="46" height="113"/>
<path d="M113.571 133.143H139.286V223.143C139.286 230.244 133.529 236 126.429 236V236C119.328 236 113.571 230.244 113.571 223.143V133.143Z"/>
</mask>
<path d="M113.571 133.143H139.286V223.143C139.286 230.244 133.529 236 126.429 236V236C119.328 236 113.571 230.244 113.571 223.143V133.143Z" fill="black"/>
<path d="M113.571 133.143H139.286H113.571ZM149.286 223.143C149.286 235.767 139.052 246 126.429 246H126.429C113.805 246 103.571 235.767 103.571 223.143L123.571 223.143C123.571 224.721 124.851 226 126.429 226C128.007 226 129.286 224.721 129.286 223.143L149.286 223.143ZM126.429 246C113.805 246 103.571 235.767 103.571 223.143V133.143H123.571V223.143C123.571 224.721 124.851 226 126.429 226L126.429 246ZM149.286 133.143V223.143C149.286 235.767 139.052 246 126.429 246L126.429 226C128.007 226 129.286 224.721 129.286 223.143V133.143H149.286Z" fill="#2286FF" mask="url(#path-2-outside-1_3_26)"/>
<path d="M151.286 20V17H148.286H138.857C133.887 17 129.857 21.0294 129.857 26V91.1429C129.857 96.1134 133.887 100.143 138.857 100.143H148.286H151.286V97.1429V20Z" fill="#2286FF" stroke="black" stroke-width="6"/>
<mask id="path-5-outside-2_3_26" maskUnits="userSpaceOnUse" x="148.286" y="13.0714" width="39" height="29" fill="black">
<rect fill="white" x="148.286" y="13.0714" width="39" height="29"/>
<path d="M148.286 36.0714V20L172.393 20C176.831 20 180.429 23.5977 180.429 28.0357V28.0357C180.429 32.4737 176.831 36.0714 172.393 36.0714H148.286Z"/>
</mask>
<path d="M148.286 36.0714V20L172.393 20C176.831 20 180.429 23.5977 180.429 28.0357V28.0357C180.429 32.4737 176.831 36.0714 172.393 36.0714H148.286Z" fill="#2286FF"/>
<path d="M148.286 36.0714V20V36.0714ZM172.393 14C180.145 14 186.429 20.284 186.429 28.0357C186.429 35.7874 180.145 42.0714 172.393 42.0714V30.0714C173.517 30.0714 174.429 29.16 174.429 28.0357C174.429 26.9114 173.517 26 172.393 26V14ZM186.429 28.0357C186.429 35.7874 180.145 42.0714 172.393 42.0714H148.286V30.0714L172.393 30.0714C173.517 30.0714 174.429 29.16 174.429 28.0357L186.429 28.0357ZM148.286 14L172.393 14C180.145 14 186.429 20.284 186.429 28.0357L174.429 28.0357C174.429 26.9114 173.517 26 172.393 26L148.286 26V14Z" fill="black" mask="url(#path-5-outside-2_3_26)"/>
<mask id="path-7-outside-3_3_26" maskUnits="userSpaceOnUse" x="148.286" y="43.9286" width="32" height="29" fill="black">
<rect fill="white" x="148.286" y="43.9286" width="32" height="29"/>
<path d="M148.286 66.9286V50.8571H165.964C170.402 50.8571 174 54.4549 174 58.8929V58.8929C174 63.3309 170.402 66.9286 165.964 66.9286H148.286Z"/>
</mask>
<path d="M148.286 66.9286V50.8571H165.964C170.402 50.8571 174 54.4549 174 58.8929V58.8929C174 63.3309 170.402 66.9286 165.964 66.9286H148.286Z" fill="#2286FF"/>
<path d="M148.286 66.9286V50.8571V66.9286ZM165.964 44.8571C173.716 44.8571 180 51.1411 180 58.8929C180 66.6446 173.716 72.9286 165.964 72.9286V60.9286C167.089 60.9286 168 60.0172 168 58.8929C168 57.7686 167.089 56.8571 165.964 56.8571V44.8571ZM180 58.8929C180 66.6446 173.716 72.9286 165.964 72.9286H148.286V60.9286H165.964C167.089 60.9286 168 60.0172 168 58.8929H180ZM148.286 44.8571H165.964C173.716 44.8571 180 51.1411 180 58.8929H168C168 57.7686 167.089 56.8571 165.964 56.8571H148.286V44.8571Z" fill="black" mask="url(#path-7-outside-3_3_26)"/>
<mask id="path-9-outside-4_3_26" maskUnits="userSpaceOnUse" x="148.286" y="74.1429" width="39" height="29" fill="black">
<rect fill="white" x="148.286" y="74.1429" width="39" height="29"/>
<path d="M148.286 97.1429V81.0714H172.393C176.831 81.0714 180.429 84.6691 180.429 89.1071V89.1071C180.429 93.5451 176.831 97.1429 172.393 97.1429H148.286Z"/>
</mask>
<path d="M148.286 97.1429V81.0714H172.393C176.831 81.0714 180.429 84.6691 180.429 89.1071V89.1071C180.429 93.5451 176.831 97.1429 172.393 97.1429H148.286Z" fill="#2286FF"/>
<path d="M148.286 97.1429V81.0714V97.1429ZM172.393 75.0714C180.145 75.0714 186.429 81.3554 186.429 89.1071C186.429 96.8588 180.145 103.143 172.393 103.143V91.1429C173.517 91.1429 174.429 90.2314 174.429 89.1071C174.429 87.9828 173.517 87.0714 172.393 87.0714V75.0714ZM186.429 89.1071C186.429 96.8588 180.145 103.143 172.393 103.143H148.286V91.1429H172.393C173.517 91.1429 174.429 90.2314 174.429 89.1071H186.429ZM148.286 75.0714H172.393C180.145 75.0714 186.429 81.3554 186.429 89.1071H174.429C174.429 87.9828 173.517 87.0714 172.393 87.0714H148.286V75.0714Z" fill="black" mask="url(#path-9-outside-4_3_26)"/>
</svg>
